<svg width="224" height="64" viewBox="0 0 224 64" fill="none" xmlns="http://www.w3.org/2000/svg">
<path d="M88.9741 25.4009V40.3741C88.9741 41.5422 89.2396 42.4448 89.7706 43.082C90.3016 43.7191 91.0828 44.0377 92.1144 44.0377C92.8881 44.0377 93.6087 43.8784 94.2762 43.5598C94.9589 43.2413 95.6188 42.7937 96.2559 42.2173V25.4009H103.31V48.9984H98.9411C98.0612 48.9984 97.4847 48.604 97.2117 47.8151L96.7793 46.4498C96.3242 46.8897 95.8539 47.2917 95.3685 47.6558C94.883 48.0048 94.3596 48.3082 93.7983 48.5661C93.2522 48.8088 92.6605 48.9984 92.0234 49.135C91.3862 49.2867 90.6884 49.3625 89.9299 49.3625C88.6404 49.3625 87.495 49.1425 86.4938 48.7026C85.5077 48.2475 84.6733 47.6179 83.9907 46.8139C83.308 46.0099 82.7922 45.0617 82.4433 43.9694C82.0944 42.8772 81.9199 41.6787 81.9199 40.3741V25.4009H88.9741Z" fill="black"/>
<path d="M108.775 48.9984V15.8436H120.972C123.263 15.8436 125.212 16.056 126.82 16.4807C128.428 16.9055 129.74 17.5047 130.757 18.2784C131.773 19.0521 132.509 19.9927 132.964 21.1001C133.434 22.2075 133.67 23.4439 133.67 24.8093C133.67 25.5526 133.563 26.2732 133.351 26.971C133.139 27.6537 132.805 28.2984 132.35 28.9053C131.895 29.5121 131.311 30.0658 130.598 30.5664C129.885 31.0519 129.027 31.4766 128.026 31.8407C130.211 32.3717 131.826 33.2364 132.873 34.4349C133.92 35.6181 134.443 37.1428 134.443 39.0087C134.443 40.4196 134.17 41.7318 133.624 42.9454C133.078 44.1591 132.274 45.221 131.212 46.1312C130.165 47.0263 128.868 47.7317 127.321 48.2475C125.773 48.7481 124.006 48.9984 122.019 48.9984H108.775ZM116.466 34.9355V43.1958H121.882C122.899 43.1958 123.725 43.0668 124.363 42.8089C125.015 42.551 125.523 42.2173 125.887 41.8077C126.251 41.3981 126.502 40.9354 126.638 40.4196C126.775 39.9038 126.843 39.3804 126.843 38.8494C126.843 38.2426 126.76 37.6965 126.593 37.211C126.441 36.7256 126.168 36.316 125.773 35.9822C125.394 35.6485 124.886 35.3906 124.249 35.2086C123.612 35.0265 122.808 34.9355 121.837 34.9355H116.466ZM116.466 29.7927H120.471C121.321 29.7927 122.087 29.732 122.77 29.6107C123.452 29.4893 124.029 29.2769 124.499 28.9735C124.985 28.6701 125.349 28.2529 125.591 27.722C125.849 27.191 125.978 26.5235 125.978 25.7195C125.978 24.9306 125.88 24.2783 125.682 23.7625C125.485 23.2315 125.182 22.8068 124.772 22.4882C124.363 22.1696 123.839 21.9421 123.202 21.8055C122.58 21.669 121.837 21.6007 120.972 21.6007H116.466V29.7927Z" fill="black"/>
<path d="M145.923 14.9333V48.9984H138.869V14.9333H145.923Z" fill="black"/>
<path d="M162.133 25.0368C163.923 25.0368 165.553 25.3175 167.025 25.8788C168.497 26.4401 169.756 27.2441 170.802 28.2909C171.864 29.3376 172.684 30.6119 173.26 32.1138C173.852 33.6005 174.147 35.2768 174.147 37.1428C174.147 39.0239 173.852 40.723 173.26 42.24C172.684 43.7419 171.864 45.0238 170.802 46.0857C169.756 47.1325 168.497 47.9441 167.025 48.5206C165.553 49.0819 163.923 49.3625 162.133 49.3625C160.327 49.3625 158.681 49.0819 157.195 48.5206C155.723 47.9441 154.449 47.1325 153.372 46.0857C152.31 45.0238 151.483 43.7419 150.891 42.24C150.315 40.723 150.027 39.0239 150.027 37.1428C150.027 35.2768 150.315 33.6005 150.891 32.1138C151.483 30.6119 152.31 29.3376 153.372 28.2909C154.449 27.2441 155.723 26.4401 157.195 25.8788C158.681 25.3175 160.327 25.0368 162.133 25.0368ZM162.133 44.1287C163.756 44.1287 164.947 43.5598 165.705 42.4221C166.479 41.2691 166.866 39.5245 166.866 37.1883C166.866 34.852 166.479 33.115 165.705 31.9773C164.947 30.8395 163.756 30.2706 162.133 30.2706C160.464 30.2706 159.243 30.8395 158.469 31.9773C157.695 33.115 157.308 34.852 157.308 37.1883C157.308 39.5245 157.695 41.2691 158.469 42.4221C159.243 43.5598 160.464 44.1287 162.133 44.1287Z" fill="black"/>
<path d="M195.041 30.9988C194.828 31.2567 194.623 31.4615 194.426 31.6132C194.229 31.7649 193.948 31.8407 193.584 31.8407C193.235 31.8407 192.917 31.7573 192.629 31.5904C192.355 31.4235 192.044 31.2415 191.696 31.0443C191.347 30.8319 190.937 30.6423 190.467 30.4754C189.996 30.3085 189.412 30.2251 188.715 30.2251C187.85 30.2251 187.099 30.3844 186.462 30.703C185.84 31.0215 185.324 31.4766 184.914 32.0683C184.505 32.6599 184.201 33.3881 184.004 34.2528C183.807 35.1024 183.708 36.0657 183.708 37.1428C183.708 39.4032 184.141 41.1402 185.005 42.3538C185.885 43.5674 187.091 44.1742 188.624 44.1742C189.443 44.1742 190.088 44.0756 190.558 43.8784C191.043 43.666 191.453 43.4385 191.787 43.1958C192.12 42.9379 192.424 42.7027 192.697 42.4903C192.985 42.2779 193.342 42.1718 193.766 42.1718C194.328 42.1718 194.752 42.3766 195.041 42.7861L197.089 45.312C196.36 46.1464 195.594 46.8291 194.79 47.36C193.986 47.8758 193.16 48.2854 192.31 48.5888C191.476 48.8771 190.634 49.0743 189.784 49.1805C188.935 49.3018 188.108 49.3625 187.304 49.3625C185.863 49.3625 184.482 49.0894 183.162 48.5433C181.858 47.9972 180.705 47.2083 179.703 46.1767C178.717 45.13 177.928 43.8481 177.337 42.331C176.76 40.814 176.472 39.0846 176.472 37.1428C176.472 35.4437 176.722 33.8584 177.223 32.3869C177.739 30.9002 178.49 29.6183 179.476 28.5412C180.477 27.4489 181.706 26.5918 183.162 25.9698C184.634 25.3478 186.333 25.0368 188.259 25.0368C190.11 25.0368 191.733 25.3326 193.129 25.9243C194.525 26.5159 195.784 27.3806 196.907 28.5184L195.041 30.9988Z" fill="black"/>
<path d="M207.207 14.9333V34.0253H208.254C208.694 34.0253 209.027 33.9646 209.255 33.8432C209.498 33.7219 209.725 33.5019 209.938 33.1833L214.398 26.5387C214.656 26.1443 214.959 25.856 215.308 25.674C215.672 25.4919 216.127 25.4009 216.673 25.4009H223.136L217.037 33.7977C216.749 34.1921 216.431 34.5411 216.082 34.8445C215.748 35.1479 215.384 35.4209 214.989 35.6637C215.672 36.1795 216.264 36.8621 216.764 37.7117L223.409 48.9984H217.037C216.506 48.9984 216.044 48.915 215.649 48.7481C215.27 48.5661 214.959 48.2551 214.716 47.8151L210.256 39.4638C210.044 39.0846 209.824 38.8419 209.596 38.7357C209.369 38.6143 209.027 38.5536 208.572 38.5536H207.207V48.9984H200.153V14.9333H207.207Z" fill="black"/>
<path fill-rule="evenodd" clip-rule="evenodd" d="M15.2729 4.94434C16.162 4.05519 17.3679 3.55566 18.6252 3.55566H38.2637C39.521 3.55566 40.7269 4.05519 41.616 4.94434L55.5005 18.83C56.3895 19.7191 56.8889 20.9249 56.8889 22.1821V41.8209C56.8889 43.0782 56.3895 44.2841 55.5003 45.1731L41.616 59.0575C40.7269 59.9465 39.5211 60.446 38.2638 60.446H18.6251C17.3678 60.446 16.162 59.9465 15.2729 59.0575L1.38853 45.1731C0.499469 44.2841 0 43.0783 0 41.8209V22.1821C0 20.9249 0.499412 19.7191 1.38838 18.83L15.2729 4.94434ZM24.6289 19.2519C24.6289 18.6996 24.1812 18.2519 23.6289 18.2519H18.1854C17.6331 18.2519 17.1854 18.6996 17.1854 19.2519V36.4218C17.1854 37.7984 17.3695 39.063 17.7377 40.2156C18.1059 41.3681 18.6501 42.3686 19.3705 43.217C20.0908 44.0654 20.9712 44.7297 22.0117 45.2099C23.0682 45.6741 24.3978 45.8273 25.7584 45.8273H35.1807H38.7561C39.3084 45.8273 39.7561 45.3796 39.7561 44.8273V19.2519C39.7561 18.6996 39.3084 18.2519 38.7561 18.2519H33.3126C32.7603 18.2519 32.3126 18.6996 32.3126 19.2519V38.1024C32.3126 38.6547 31.865 39.1024 31.3127 39.1024H27.9425C26.854 39.1024 26.0296 38.7663 25.4693 38.0939C24.9091 37.4216 24.6289 36.4692 24.6289 35.2366V19.2519Z" fill="black"/>
</svg>
