<svg width="68" height="68" viewBox="0 0 68 68" fill="none" xmlns="http://www.w3.org/2000/svg">
<path fill-rule="evenodd" clip-rule="evenodd" d="M33.9993 5.66663C18.3593 5.66663 5.66602 18.36 5.66602 34C5.66602 49.64 18.3593 62.3333 33.9993 62.3333C49.6393 62.3333 62.3327 49.64 62.3327 34C62.3327 18.36 49.6393 5.66663 33.9993 5.66663ZM33.9993 56.6666C21.5043 56.6666 11.3327 46.495 11.3327 34C11.3327 21.505 21.5043 11.3333 33.9993 11.3333C46.4944 11.3333 56.666 21.505 56.666 34C56.666 46.495 46.4944 56.6666 33.9993 56.6666ZM28.3327 40.1483L44.9927 23.4883C46.0977 22.3833 47.911 22.3833 49.016 23.4883C50.121 24.5933 50.121 26.3783 49.016 27.4833L30.3443 46.155C29.2393 47.26 27.4543 47.26 26.3493 46.155L19.011 38.8166C17.906 37.7116 17.906 35.9266 19.011 34.8216C19.5404 34.2911 20.259 33.9929 21.0085 33.9929C21.758 33.9929 22.4767 34.2911 23.006 34.8216L28.3327 40.1483Z" fill="#666666"/>
</svg>
