<svg width="160" height="46" viewBox="0 0 160 46" fill="none" xmlns="http://www.w3.org/2000/svg">
<path fill-rule="evenodd" clip-rule="evenodd" d="M10.9092 3.55365C11.5443 2.91458 12.4056 2.55554 13.3037 2.55554H27.3312C28.2293 2.55554 29.0907 2.91458 29.7257 3.55365L39.6432 13.534C40.2782 14.173 40.6349 15.0397 40.6349 15.9433V30.0587C40.6349 30.9624 40.2782 31.8291 39.6431 32.4681L29.7257 42.4475C29.0907 43.0865 28.2294 43.4454 27.3313 43.4454H13.3036C12.4056 43.4454 11.5443 43.0865 10.9092 42.4475L0.991808 32.4681C0.356764 31.8291 0 30.9624 0 30.0587V15.9433C0 15.0397 0.356723 14.173 0.991701 13.534L10.9092 3.55365ZM17.7329 25.2694V13.9135H12.4161V25.2694C12.4161 26.2589 12.5476 27.1678 12.8106 27.9962C13.0736 28.8246 13.4623 29.5437 13.9769 30.1535C14.4914 30.7633 15.1203 31.2407 15.8635 31.5859C16.6181 31.9195 17.4814 32.0864 18.4533 32.0864C19.025 32.0864 19.5509 32.0289 20.0311 31.9138C20.5114 31.8102 20.9573 31.6664 21.3689 31.4823C21.792 31.2867 22.1864 31.0566 22.5523 30.792C22.9182 30.5159 23.2727 30.211 23.6157 29.8773L23.9416 30.9128C24.1474 31.5111 24.5819 31.8102 25.245 31.8102H28.538V13.9135H23.2212V26.6673C22.741 27.1045 22.2436 27.4439 21.7291 27.6855C21.226 27.9272 20.6829 28.048 20.0998 28.048C19.3222 28.048 18.7334 27.8064 18.3332 27.3231C17.933 26.8399 17.7329 26.1553 17.7329 25.2694Z" fill="white"/>
<path d="M63.5534 18.817V29.579C63.5534 30.4186 63.743 31.0673 64.1223 31.5253C64.5015 31.9832 65.0596 32.2122 65.7964 32.2122C66.3491 32.2122 66.8638 32.0977 67.3406 31.8687C67.8282 31.6398 68.2995 31.3181 68.7546 30.9038V18.817H73.7934V35.7777H70.6726C70.0441 35.7777 69.6324 35.4942 69.4373 34.9272L69.1285 33.9459C68.8034 34.2621 68.4675 34.5511 68.1207 34.8127C67.774 35.0635 67.4002 35.2816 66.9992 35.467C66.6091 35.6414 66.1865 35.7777 65.7314 35.8759C65.2763 35.9849 64.7778 36.0394 64.236 36.0394C63.315 36.0394 62.4969 35.8813 61.7817 35.5651C61.0774 35.238 60.4814 34.7855 59.9938 34.2076C59.5061 33.6297 59.1377 32.9482 58.8885 32.1631C58.6393 31.3781 58.5146 30.5167 58.5146 29.579V18.817H63.5534Z" fill="white"/>
<path d="M77.6969 35.7777V11.9477H86.409C88.0452 11.9477 89.4377 12.1003 90.5863 12.4056C91.7349 12.7109 92.6722 13.1416 93.3982 13.6977C94.1242 14.2538 94.6498 14.9298 94.9748 15.7258C95.3108 16.5218 95.4787 17.4104 95.4787 18.3918C95.4787 18.926 95.4029 19.444 95.2512 19.9455C95.0995 20.4362 94.8611 20.8996 94.536 21.3358C94.2109 21.7719 93.7937 22.1699 93.2844 22.5297C92.7751 22.8786 92.1629 23.1839 91.4477 23.4456C93.0081 23.8273 94.1621 24.4488 94.9098 25.3102C95.6575 26.1607 96.0314 27.2565 96.0314 28.5976C96.0314 29.6117 95.8363 30.5548 95.4462 31.4271C95.0561 32.2994 94.4818 33.0627 93.7233 33.7169C92.9756 34.3602 92.0491 34.8673 90.9439 35.238C89.8386 35.5978 88.5762 35.7777 87.1567 35.7777H77.6969ZM83.1907 25.67V31.6071H87.0592C87.7852 31.6071 88.3757 31.5144 88.8308 31.329C89.2968 31.1436 89.6598 30.9038 89.9199 30.6094C90.1799 30.315 90.3587 29.9824 90.4562 29.6117C90.5538 29.241 90.6025 28.8648 90.6025 28.4831C90.6025 28.047 90.5429 27.6545 90.4237 27.3055C90.3154 26.9566 90.1203 26.6622 89.8386 26.4223C89.5677 26.1825 89.2047 25.9971 88.7496 25.8663C88.2945 25.7354 87.7202 25.67 87.0266 25.67H83.1907ZM83.1907 21.9736H86.0514C86.6582 21.9736 87.2054 21.93 87.6931 21.8428C88.1807 21.7556 88.5925 21.6029 88.9284 21.3848C89.2751 21.1668 89.5352 20.8669 89.7086 20.4853C89.8928 20.1037 89.9849 19.6239 89.9849 19.046C89.9849 18.479 89.9144 18.0101 89.7736 17.6394C89.6327 17.2578 89.416 16.9525 89.1234 16.7235C88.8308 16.4945 88.457 16.331 88.0019 16.2328C87.5576 16.1347 87.0267 16.0856 86.409 16.0856H83.1907V21.9736Z" fill="white"/>
<path d="M104.231 11.2935V35.7777H99.1927V11.2935H104.231Z" fill="white"/>
<path d="M115.809 18.5553C117.088 18.5553 118.253 18.757 119.304 19.1605C120.355 19.5639 121.254 20.1418 122.002 20.8942C122.761 21.6465 123.346 22.5624 123.758 23.6419C124.18 24.7105 124.391 25.9153 124.391 27.2565C124.391 28.6085 124.18 29.8298 123.758 30.9201C123.346 31.9996 122.761 32.921 122.002 33.6842C121.254 34.4366 120.355 35.0199 119.304 35.4343C118.253 35.8377 117.088 36.0394 115.809 36.0394C114.52 36.0394 113.344 35.8377 112.282 35.4343C111.231 35.0199 110.321 34.4366 109.552 33.6842C108.793 32.921 108.203 31.9996 107.78 30.9201C107.368 29.8298 107.162 28.6085 107.162 27.2565C107.162 25.9153 107.368 24.7105 107.78 23.6419C108.203 22.5624 108.793 21.6465 109.552 20.8942C110.321 20.1418 111.231 19.5639 112.282 19.1605C113.344 18.757 114.52 18.5553 115.809 18.5553ZM115.809 32.2776C116.969 32.2776 117.819 31.8687 118.361 31.051C118.914 30.2223 119.19 28.9684 119.19 27.2892C119.19 25.61 118.914 24.3615 118.361 23.5438C117.819 22.726 116.969 22.3171 115.809 22.3171C114.617 22.3171 113.745 22.726 113.192 23.5438C112.64 24.3615 112.364 25.61 112.364 27.2892C112.364 28.9684 112.64 30.2223 113.192 31.051C113.745 31.8687 114.617 32.2776 115.809 32.2776Z" fill="white"/>
<path d="M139.315 22.8405C139.163 23.0258 139.017 23.173 138.876 23.2821C138.735 23.3911 138.535 23.4456 138.275 23.4456C138.026 23.4456 137.798 23.3857 137.592 23.2657C137.397 23.1458 137.175 23.0149 136.926 22.8732C136.677 22.7205 136.384 22.5842 136.048 22.4643C135.712 22.3444 135.295 22.2844 134.797 22.2844C134.179 22.2844 133.643 22.3989 133.187 22.6279C132.743 22.8568 132.375 23.1839 132.082 23.6092C131.79 24.0344 131.573 24.5578 131.432 25.1793C131.291 25.7899 131.221 26.4823 131.221 27.2565C131.221 28.8811 131.53 30.1296 132.147 31.0019C132.776 31.8742 133.637 32.3103 134.732 32.3103C135.317 32.3103 135.777 32.2395 136.113 32.0977C136.46 31.9451 136.752 31.7815 136.991 31.6071C137.229 31.4217 137.446 31.2527 137.641 31.1C137.847 30.9474 138.102 30.8711 138.405 30.8711C138.806 30.8711 139.109 31.0183 139.315 31.3127L140.778 33.1281C140.258 33.7278 139.711 34.2185 139.136 34.6001C138.562 34.9708 137.972 35.2653 137.365 35.4833C136.769 35.6905 136.167 35.8322 135.56 35.9086C134.954 35.9958 134.363 36.0394 133.789 36.0394C132.759 36.0394 131.773 35.8431 130.831 35.4506C129.899 35.0581 129.075 34.4911 128.36 33.7496C127.656 32.9973 127.092 32.0759 126.67 30.9855C126.258 29.8952 126.052 28.6522 126.052 27.2565C126.052 26.0353 126.231 24.8958 126.588 23.8382C126.957 22.7696 127.493 21.8482 128.197 21.0741C128.913 20.289 129.79 19.673 130.831 19.2259C131.882 18.7788 133.095 18.5553 134.471 18.5553C135.793 18.5553 136.953 18.7679 137.95 19.1932C138.947 19.6184 139.846 20.2399 140.648 21.0577L139.315 22.8405Z" fill="white"/>
<path d="M148.005 11.2935V25.0158H148.753C149.067 25.0158 149.306 24.9722 149.468 24.8849C149.642 24.7977 149.804 24.6396 149.956 24.4106L153.142 19.6348C153.326 19.3513 153.543 19.1441 153.792 19.0133C154.052 18.8824 154.377 18.817 154.767 18.817H159.383L155.027 24.8522C154.821 25.1357 154.594 25.3865 154.344 25.6046C154.106 25.8226 153.846 26.0189 153.564 26.1934C154.052 26.5641 154.475 27.0548 154.832 27.6654L159.578 35.7777H155.027C154.648 35.7777 154.317 35.7178 154.036 35.5978C153.765 35.467 153.543 35.2434 153.369 34.9272L150.183 28.9247C150.032 28.6522 149.875 28.4777 149.712 28.4014C149.55 28.3141 149.306 28.2705 148.981 28.2705H148.005V35.7777H142.967V11.2935H148.005Z" fill="white"/>
</svg>
